<?xml version="1.0" encoding="UTF-8"?>
<svg version="1.1" xmlns="http://www.w3.org/2000/svg" width="512" height="512">
<path d="M0 0 C2.78595369 4.13671912 2.56782438 7.1951631 2.0625 12.0625 C1.32299019 15.14997392 0.23931026 18.04685957 -0.91796875 21 C-1.23770157 21.85193436 -1.55743439 22.70386871 -1.88685608 23.58161926 C-2.95296251 26.41379587 -4.03923871 29.23780665 -5.125 32.0625 C-5.89391547 34.09662155 -6.66112568 36.1313884 -7.42675781 38.16674805 C-9.06808018 42.52775104 -10.71567876 46.88631244 -12.36669922 51.24365234 C-16.27124098 61.5730092 -20.06971368 71.94149146 -23.87661743 82.30712891 C-26.09615296 88.34810988 -28.32194827 94.38678432 -30.546875 100.42578125 C-31.4472963 102.87059417 -32.34768693 105.31541839 -33.24804688 107.76025391 C-37.20741758 118.51088092 -41.16826965 129.26096216 -45.12902832 140.01107788 C-47.31524797 145.94486226 -49.50136893 151.87868299 -51.6875 157.8125 C-52.56249953 160.18750017 -53.43749953 162.56250017 -54.3125 164.9375 C-54.745625 166.113125 -55.17875 167.28875 -55.625 168.5 C-56.9375 172.0625 -58.25 175.625 -59.5625 179.1875 C-60.21216484 180.95087708 -60.21216484 180.95087708 -60.87495422 182.74987793 C-61.75010493 185.12528553 -62.62525751 187.50069243 -63.50041199 189.87609863 C-65.68562169 195.80735673 -67.87079881 201.73862682 -70.0559082 207.66992188 C-74.02060775 218.43166497 -77.98549234 229.19333959 -81.95173645 239.95451355 C-82.84547158 242.37953229 -83.73909758 244.80459126 -84.63261414 247.22969055 C-86.83179549 253.19837335 -89.03235899 259.16653808 -91.23608398 265.13354492 C-95.13369378 275.69305511 -99.01708029 286.25692604 -102.83653259 296.84500122 C-104.49271576 301.435365 -106.15637546 306.02300467 -107.82022095 310.6105957 C-108.59955586 312.7669861 -109.37484308 314.92484416 -110.14584351 317.08422852 C-111.2032379 320.04550324 -112.27397362 323.001631 -113.34765625 325.95703125 C-113.65399994 326.82705276 -113.96034363 327.69707428 -114.27597046 328.59346008 C-116.14126528 333.67789274 -117.86034118 337.52392059 -122.9375 340.0625 C-128.26192504 340.67034621 -131.39845165 339.00561151 -135.6875 336.125 C-136.69538574 335.47204956 -136.69538574 335.47204956 -137.72363281 334.8059082 C-139.25993589 333.80751451 -140.7918766 332.80238854 -142.3203125 331.79199219 C-145.22605304 329.87181812 -148.14354524 327.97033583 -151.0625 326.0703125 C-155.53342656 323.15697108 -159.99945064 320.23636619 -164.4609375 317.30859375 C-170.06917857 313.62937007 -175.68697999 309.96523799 -181.3125 306.3125 C-182.51144897 305.53386597 -182.51144897 305.53386597 -183.73461914 304.73950195 C-185.33001876 303.70352186 -186.9254773 302.66763249 -188.52099609 301.63183594 C-191.87534507 299.45344079 -195.22819555 297.27274648 -198.58056641 295.09130859 C-200.25749653 294.00135228 -201.93553191 292.91309428 -203.61474609 291.82666016 C-207.71160643 289.1743152 -211.78797999 286.4979384 -215.83203125 283.765625 C-216.99665894 282.98759521 -216.99665894 282.98759521 -218.18481445 282.19384766 C-219.64988053 281.21417304 -221.10848239 280.22473755 -222.55932617 279.22412109 C-225.93958432 276.76292662 -225.93958432 276.76292662 -229.91221619 276.30206299 C-232.08239297 277.11690323 -233.81512052 278.09884717 -235.74829102 279.37792969 C-236.49166214 279.86590027 -237.23503326 280.35387085 -238.00093079 280.85662842 C-238.80628769 281.39378479 -239.61164459 281.93094116 -240.44140625 282.484375 C-241.29643234 283.04844055 -242.15145844 283.6125061 -243.03239441 284.19366455 C-245.85879775 286.06083551 -248.67946253 287.93648213 -251.5 289.8125 C-253.46301944 291.1122763 -255.42623826 292.41175152 -257.38964844 293.7109375 C-273.38086876 304.30663349 -289.29522725 315.01702879 -305.17407227 325.78027344 C-306.04002518 326.36669617 -306.90597809 326.9531189 -307.798172 327.55731201 C-309.39931712 328.64197038 -310.99964391 329.72783832 -312.59892273 330.81524658 C-316.13524694 333.21087451 -319.68769437 335.58095932 -323.27832031 337.89453125 C-324.21964813 338.50325073 -324.21964813 338.50325073 -325.17999268 339.12426758 C-327.92126477 340.58767562 -329.91538937 340.59976411 -332.9375 340.0625 C-335.6875 339.0625 -335.6875 339.0625 -337.9375 337.0625 C-339.99495377 330.183449 -341.09200293 323.06910819 -342.35180664 316.00878906 C-342.58457809 314.71682114 -342.81734955 313.42485321 -343.05717468 312.09373474 C-343.56072548 309.2987248 -344.06258351 306.50341828 -344.563097 303.70786285 C-345.3546987 299.28657768 -346.15017237 294.86599443 -346.94615173 290.44549561 C-348.2042125 283.45624146 -349.45975152 276.46653714 -350.7141785 269.47662997 C-352.96247036 256.94884435 -355.21381795 244.4216084 -357.46796125 231.89487433 C-358.2585577 227.50070051 -359.04764014 223.10625828 -359.83550084 218.71159315 C-360.20735267 216.63845581 -360.57980959 214.56542826 -360.95252991 212.4924469 C-361.40680532 209.96570763 -361.86009593 207.43879103 -362.31222534 204.91166687 C-362.51264938 203.798647 -362.71307343 202.68562714 -362.91957092 201.53887939 C-363.09303575 200.57216938 -363.26650057 199.60545937 -363.4452219 198.60945511 C-363.60767367 197.76895992 -363.77012545 196.92846474 -363.9375 196.0625 C-364.13574198 194.95667131 -364.13574198 194.95667131 -364.33798885 193.82850266 C-365.39453276 190.71620132 -368.21788872 189.99711447 -371.04296875 188.59375 C-371.98259712 188.11881859 -371.98259712 188.11881859 -372.94120789 187.6342926 C-374.29118286 186.95371985 -375.64431377 186.27937884 -377.00018311 185.61062622 C-379.87084565 184.19459047 -382.72634785 182.74920639 -385.58276367 181.30470276 C-387.02131232 180.57735299 -388.46060576 179.85147444 -389.90063477 179.12705994 C-395.6086692 176.25066587 -401.22604674 173.23106583 -406.8125 170.125 C-415.92735715 165.08433323 -425.16744568 160.30898239 -434.4375 155.5625 C-444.5627791 150.37812273 -454.62843877 145.12177716 -464.578125 139.60522461 C-469.99152795 136.62100446 -475.45429677 133.7524116 -480.9609375 130.9453125 C-482.01016891 130.40938225 -482.01016891 130.40938225 -483.08059692 129.86262512 C-486.55133943 128.09123264 -490.02625078 126.32889213 -493.50830078 124.57983398 C-494.78692156 123.92979554 -496.06541067 123.27949801 -497.34375 122.62890625 C-499.03467773 121.77727905 -499.03467773 121.77727905 -500.75976562 120.90844727 C-509.35658721 115.91454991 -509.35658721 115.91454991 -510.6640625 111.74609375 C-510.63054687 111.00488281 -510.59703125 110.26367188 -510.5625 109.5 C-510.55476563 108.75621094 -510.54703125 108.01242188 -510.5390625 107.24609375 C-509.71097456 104.24024209 -508.29736969 103.07616726 -505.9375 101.0625 C-503.41080952 100.11847591 -503.41080952 100.11847591 -500.55671692 99.49534607 C-499.48987482 99.25599775 -498.42303272 99.01664944 -497.32386208 98.77004814 C-495.64761285 98.41981181 -495.64761285 98.41981181 -493.9375 98.0625 C-492.86105413 97.82874224 -491.78460827 97.59498447 -490.67554283 97.35414314 C-487.13094434 96.595 -483.58148184 95.86334801 -480.0300293 95.13696289 C-478.66791222 94.85642855 -477.30584202 94.57566648 -475.94381428 94.29469872 C-473.01139963 93.69029012 -470.07866335 93.08747671 -467.1456604 92.48592949 C-462.40192587 91.51300099 -457.6589342 90.53648282 -452.91601562 89.55958557 C-446.07008013 88.14990317 -439.2238032 86.74189004 -432.37728882 85.33502197 C-421.51178527 83.10222614 -410.64702692 80.8658184 -399.7824707 78.62841797 C-398.87194958 78.44090926 -397.96142846 78.25340055 -397.02331579 78.06020975 C-392.40410432 77.10892789 -387.78490707 76.15757703 -383.16571999 75.20617676 C-379.43847906 74.43849876 -375.71121221 73.67094675 -371.98392296 72.90350342 C-347.28783066 67.81855201 -322.59440991 62.72098782 -297.90625 57.59765625 C-296.8524905 57.37898089 -296.8524905 57.37898089 -295.77744293 57.15588784 C-287.44037675 55.42569974 -279.10350245 53.69458813 -270.76671219 51.96307105 C-257.7926479 49.26841613 -244.81833226 46.57497233 -231.84375 43.8828125 C-231.17267841 43.74356535 -230.50160683 43.60431819 -229.81019974 43.46085143 C-192.09007409 35.63428812 -154.35904798 27.86055752 -116.62693882 20.09200478 C-114.04386411 19.56016492 -111.46080216 19.02826304 -108.87775326 18.49629784 C-102.63021292 17.20970631 -96.3824837 15.92404865 -90.13432312 14.64047241 C-77.94368134 12.13454414 -65.75723189 9.61024589 -53.57778728 7.05052471 C-49.53067144 6.2006784 -45.48281941 5.35434376 -41.43497425 4.50797892 C-38.21428986 3.83412969 -34.99440984 3.15673582 -31.77545738 2.47465515 C-28.24325728 1.72625326 -24.70938143 0.98630155 -21.17504883 0.24804688 C-20.1353853 0.02529083 -19.09572178 -0.19746521 -18.0245533 -0.42697144 C-4.80122587 -3.166766 -4.80122587 -3.166766 0 0 Z M-79.74273682 30.8547821 C-81.23537111 31.15793524 -81.23537111 31.15793524 -82.75815964 31.46721268 C-84.40202589 31.81348269 -84.40202589 31.81348269 -86.07910156 32.16674805 C-87.82186811 32.52427973 -87.82186811 32.52427973 -89.59984207 32.88903427 C-92.82821724 33.55298215 -96.0550046 34.22388898 -99.28131676 34.89774585 C-102.7474686 35.61995314 -106.21545368 36.33325248 -109.68322754 37.04762268 C-115.68941968 38.28620444 -121.69440192 39.53051601 -127.6986084 40.77868652 C-136.46244383 42.60053433 -145.22806675 44.41365877 -153.99410677 46.2248652 C-170.58934001 49.65404179 -187.18222647 53.09447766 -203.77441812 56.5383364 C-204.99813925 56.79232894 -204.99813925 56.79232894 -206.24658203 57.05145264 C-207.46366494 57.3040691 -207.46366494 57.3040691 -208.70533538 57.56178892 C-217.10396963 59.30485293 -225.50311513 61.04544721 -233.90234375 62.78564453 C-235.35201011 63.08600932 -236.80167613 63.38637571 -238.25134182 63.68674374 C-240.40239396 64.13243504 -242.55344642 64.57812476 -244.70450014 65.02380842 C-262.87279422 68.78817824 -281.04089449 72.55346211 -299.20673716 76.32964671 C-305.40728474 77.618545 -311.60791938 78.90702432 -317.80859375 80.1953125 C-318.48622607 80.33610788 -319.16385839 80.47690326 -319.86202502 80.62196517 C-339.78020072 84.76013739 -359.70419254 88.8692149 -379.63341868 92.9538331 C-384.70160624 93.99263037 -389.76954397 95.03263849 -394.83731079 96.07348633 C-395.54023785 96.21784732 -396.24316492 96.36220832 -396.9673928 96.51094389 C-399.77491654 97.08753942 -402.58243662 97.66415269 -405.38992858 98.2409029 C-413.52148634 99.91130798 -421.65396519 101.57704985 -429.78811795 103.23477399 C-435.37987298 104.37477472 -440.97004578 105.52237794 -446.55965996 106.67282486 C-448.84746851 107.14229776 -451.13582956 107.60908706 -453.42476082 108.07305527 C-456.53309493 108.7034096 -459.63939943 109.34293901 -462.74536133 109.98486328 C-463.65786526 110.16752369 -464.57036919 110.3501841 -465.51052475 110.53837967 C-466.33594395 110.71094662 -467.16136314 110.88351357 -468.01179504 111.06130981 C-468.72690656 111.2074579 -469.44201807 111.353606 -470.17879963 111.50418282 C-472.16934879 111.98767875 -472.16934879 111.98767875 -473.9375 114.0625 C-472.70169189 114.69526855 -472.70169189 114.69526855 -471.44091797 115.34082031 C-443.78778972 129.51540392 -443.78778972 129.51540392 -431.9375 136.0625 C-422.52831533 141.25981812 -412.99281951 146.1884746 -403.42886353 151.09243774 C-393.89681095 155.98270644 -384.43435084 160.97683075 -375.0625 166.16992188 C-373.47915336 167.04573439 -371.89252496 167.9156474 -370.30224609 168.77880859 C-368.63557052 169.68355567 -366.97776612 170.60473977 -365.32666016 171.53759766 C-364.46218262 172.00601074 -363.59770508 172.47442383 -362.70703125 172.95703125 C-361.93593018 173.3847583 -361.1648291 173.81248535 -360.37036133 174.25317383 C-355.31525256 175.93482817 -351.13767127 173.89128267 -346.55909729 171.61265564 C-345.5804496 171.11023094 -345.5804496 171.11023094 -344.58203125 170.59765625 C-343.88726181 170.24880875 -343.19249237 169.89996124 -342.47666931 169.5405426 C-340.23036194 168.40991734 -337.99015506 167.26775962 -335.75 166.125 C-334.19786086 165.34044924 -332.64545071 164.55643444 -331.09277344 163.77294922 C-322.52391463 159.44000408 -313.9887057 155.04592439 -305.51489258 150.52954102 C-298.78158382 146.94744211 -291.95671906 143.55814906 -285.12597656 140.16650391 C-279.18686357 137.2094552 -273.29659619 134.17483609 -267.4375 131.0625 C-259.73022843 126.96841814 -251.9453158 123.04899547 -244.12890625 119.16796875 C-238.1888201 116.21042235 -232.29756164 113.17534893 -226.4375 110.0625 C-218.73022843 105.96841814 -210.9453158 102.04899547 -203.12890625 98.16796875 C-197.1888201 95.21042235 -191.29756164 92.17534893 -185.4375 89.0625 C-177.73022843 84.96841814 -169.9453158 81.04899547 -162.12890625 77.16796875 C-156.1888201 74.21042235 -150.29756164 71.17534893 -144.4375 68.0625 C-136.73022843 63.96841814 -128.9453158 60.04899547 -121.12890625 56.16796875 C-114.41970576 52.82748323 -107.78122353 49.37026339 -101.1628418 45.85400391 C-91.51130969 40.74587106 -81.72201713 35.90956931 -71.9375 31.0625 C-75.24109806 29.96130065 -76.40682197 30.1640782 -79.74273682 30.8547821 Z M-26.9375 33.0625 C-27.41356689 33.41328613 -27.88963379 33.76407227 -28.38012695 34.12548828 C-42.1492513 44.27115885 -55.91837565 54.41682943 -69.6875 64.5625 C-70.47133057 65.14008057 -71.25516113 65.71766113 -72.06274414 66.31274414 C-73.64518185 67.47870806 -75.22770131 68.64456104 -76.81030273 69.81030273 C-80.78301887 72.73681443 -84.75426994 75.66527534 -88.72265625 78.59765625 C-97.17090257 84.83721072 -105.64756584 91.0331422 -114.17041016 97.17041016 C-122.00627486 102.81968083 -129.77742854 108.55562892 -137.54638672 114.29638672 C-141.50741162 117.22206103 -145.47265717 120.14200306 -149.4375 123.0625 C-151.02085379 124.2291389 -152.60418712 125.39580558 -154.1875 126.5625 C-182.6875 147.5625 -211.1875 168.5625 -239.6875 189.5625 C-240.4722168 190.1407251 -241.25693359 190.7189502 -242.06542969 191.31469727 C-243.63894825 192.47410642 -245.21251546 193.63344954 -246.78613281 194.79272461 C-250.89504639 197.81987424 -255.00295216 200.84837851 -259.109375 203.87890625 C-260.38458008 204.81959961 -260.38458008 204.81959961 -261.68554688 205.77929688 C-263.30174847 206.97157674 -264.91765493 208.16425681 -266.53320312 209.35742188 C-270.97371835 212.63244754 -275.43919341 215.86727429 -279.9375 219.0625 C-277.18142784 221.98667866 -274.42995835 224.19091156 -271.02734375 226.3203125 C-270.05079834 226.93696777 -269.07425293 227.55362305 -268.06811523 228.18896484 C-266.48752319 229.17823975 -266.48752319 229.17823975 -264.875 230.1875 C-262.61311314 231.61754482 -260.35232505 233.04912434 -258.09375 234.484375 C-257.21746193 235.04087234 -257.21746193 235.04087234 -256.32347107 235.60861206 C-249.7723501 239.78269552 -243.32400676 244.10805157 -236.875 248.4375 C-229.27415224 253.53469891 -221.65371236 258.57621607 -213.86010742 263.37524414 C-205.06093399 268.80673287 -196.44707863 274.52932425 -187.79638672 280.19287109 C-183.4532617 283.03314876 -179.10206235 285.86094278 -174.75 288.6875 C-173.11848253 289.74738498 -171.4869721 290.80728078 -169.85546875 291.8671875 C-169.05028809 292.39022461 -168.24510742 292.91326172 -167.41552734 293.45214844 C-164.85582137 295.11557904 -162.29695193 296.78028992 -159.73828125 298.4453125 C-150.15626167 304.6796898 -140.56287744 310.89524658 -130.9375 317.0625 C-129.2627683 314.55040245 -128.29988832 312.64415559 -127.26782227 309.86547852 C-126.94814987 309.01041718 -126.62847748 308.15535583 -126.29911804 307.27438354 C-125.95419815 306.33950104 -125.60927826 305.40461853 -125.25390625 304.44140625 C-124.88687088 303.45560577 -124.51983551 302.4698053 -124.14167786 301.45413208 C-122.92378512 298.17922495 -121.71177218 294.90217632 -120.5 291.625 C-119.64487573 289.32065196 -118.78956684 287.01637242 -117.93408203 284.7121582 C-111.20254952 266.56111192 -104.55228988 248.38047385 -97.92163086 230.19238281 C-92.83494078 216.24092948 -87.716978 202.30154977 -82.5625 188.375 C-82.22035461 187.45050049 -81.87820923 186.52600098 -81.5256958 185.57348633 C-81.18157654 184.64366943 -80.83745728 183.71385254 -80.48291016 182.75585938 C-79.77766168 180.85026323 -79.07242087 178.94466424 -78.3671875 177.0390625 C-78.01302765 176.08215515 -77.6588678 175.1252478 -77.29397583 174.13934326 C-72.74596963 161.84751021 -68.21723196 149.54857623 -63.6875 137.25 C-62.80802889 134.86246568 -61.92855297 132.47493313 -61.04907227 130.08740234 C-57.14035734 119.47588346 -53.23248281 108.86405536 -49.32551003 98.25189495 C-47.40896237 93.04619562 -45.49209992 87.84061227 -43.57504845 82.63509846 C-42.00428586 78.36979024 -40.43421144 74.10422908 -38.86425781 69.83862305 C-38.44749786 68.70709305 -38.03073792 67.57556305 -37.60134888 66.40974426 C-36.80024454 64.23411111 -35.99998176 62.05816787 -35.20065308 59.88188171 C-33.48987882 55.23194747 -31.76518953 50.58965976 -29.97607422 45.96923828 C-29.68546616 45.21445694 -29.39485809 44.4596756 -29.09544373 43.68202209 C-28.34220201 41.73413046 -27.57961817 39.7898582 -26.81616211 37.84594727 C-25.60775479 35.14222389 -25.60775479 35.14222389 -26.9375 33.0625 Z M-118.90234375 74.4296875 C-119.60268234 74.77990463 -120.30302094 75.13012177 -121.02458191 75.49095154 C-123.31018005 76.63561874 -125.59266423 77.78634351 -127.875 78.9375 C-129.44703614 79.72693952 -131.01913915 80.5162459 -132.59130859 81.30541992 C-141.18078385 85.62443579 -149.7351638 90.00032516 -158.21850586 94.52490234 C-165.41987824 98.35426156 -172.72490718 101.96951142 -180.02880859 105.59838867 C-187.07179618 109.1063491 -194.04796118 112.72249968 -200.99609375 116.4140625 C-207.43203416 119.82325335 -213.93842205 123.07842836 -220.46240234 126.31518555 C-226.12221112 129.13189947 -231.72898131 132.03521705 -237.3125 135 C-244.13824378 138.62368367 -251.01579627 142.12575297 -257.9375 145.5625 C-264.81754321 148.97859518 -271.65371429 152.45897134 -278.4375 156.0625 C-285.22129248 159.66603226 -292.05756994 163.14616809 -298.9375 166.5625 C-308.23918308 171.18452491 -317.45100739 175.95657586 -326.62207031 180.83203125 C-329.78392128 182.51230633 -332.94940018 184.18569573 -336.11474609 185.859375 C-339.38984005 187.59216153 -342.66365397 189.32735685 -345.9375 191.0625 C-342.6028427 211.34545257 -339.14345136 231.60383557 -335.54321289 251.84130859 C-335.00456491 254.87146345 -334.47075441 257.90241687 -333.94067383 260.93408203 C-333.28704222 264.67222303 -332.62575472 268.4089302 -331.95874596 272.14470673 C-331.70926747 273.5492802 -331.46247623 274.95433386 -331.21848488 276.35987091 C-330.88199883 278.29492975 -330.53466197 280.22809244 -330.18676758 282.16113281 C-329.99311111 283.25645325 -329.79945465 284.35177368 -329.59992981 285.48028564 C-329.13453201 288.2049478 -329.13453201 288.2049478 -326.9375 290.0625 C-326.66045731 289.14652542 -326.38341461 288.23055084 -326.09797668 287.28681946 C-323.48190442 278.64489998 -320.84914872 270.00821854 -318.20007801 261.37635517 C-316.83877315 256.93870651 -315.48335907 252.49943613 -314.14135742 248.0559082 C-312.84543417 243.76573506 -311.5341051 239.48055112 -310.21207237 235.19835472 C-309.71101853 233.56582209 -309.21548914 231.93158309 -308.72565651 230.29564857 C-308.03724978 228.00000144 -307.3292387 225.7112721 -306.61645508 223.4230957 C-306.41936447 222.74911743 -306.22227386 222.07513916 -306.01921082 221.3807373 C-304.07802258 215.28280746 -300.27568129 211.82718915 -295.1796875 208.22265625 C-294.13276733 207.47544312 -294.13276733 207.47544312 -293.06469727 206.71313477 C-292.32147217 206.18905029 -291.57824707 205.66496582 -290.8125 205.125 C-289.19340788 203.96959387 -287.57493821 202.8133151 -285.95703125 201.65625 C-285.1263916 201.06328125 -284.29575195 200.4703125 -283.43994141 199.859375 C-279.43407 196.98296392 -275.46617698 194.05578824 -271.5 191.125 C-270.71351074 190.54435791 -269.92702148 189.96371582 -269.11669922 189.36547852 C-267.52047611 188.18678674 -265.92444747 187.00783157 -264.32861328 185.82861328 C-260.36758838 182.90293897 -256.40234283 179.98299694 -252.4375 177.0625 C-250.85414621 175.8958611 -249.27081288 174.72919442 -247.6875 173.5625 C-225.52083333 157.22916667 -203.35416667 140.89583333 -181.1875 124.5625 C-180.40366943 123.98491943 -179.61983887 123.40733887 -178.81225586 122.81225586 C-177.22981815 121.64629194 -175.64729869 120.48043896 -174.06469727 119.31469727 C-170.09198113 116.38818557 -166.12073006 113.45972466 -162.15234375 110.52734375 C-154.38149289 104.788259 -146.5921883 99.07880246 -138.75 93.4375 C-132.8222304 89.16757922 -126.92060141 84.86512396 -121.0625 80.5 C-120.4022583 80.01128418 -119.7420166 79.52256836 -119.06176758 79.01904297 C-115.774955 76.55726549 -112.7552402 74.07139343 -109.9375 71.0625 C-113.2496988 71.0625 -115.99643388 72.96130809 -118.90234375 74.4296875 Z M-290.9375 235.0625 C-294.27567787 242.90574623 -296.84817325 250.90059881 -299.30078125 259.05859375 C-299.70088131 260.38237255 -300.10112713 261.70610731 -300.50151062 263.02980042 C-301.33242204 265.78120088 -302.15966909 268.53367185 -302.98461914 271.28686523 C-304.04262642 274.81577723 -305.11287351 278.3408499 -306.18615437 281.86514187 C-307.01307957 284.58707318 -307.83209272 287.31133691 -308.64885521 290.03633308 C-309.04039402 291.33814589 -309.43474519 292.63911629 -309.83196449 293.93920708 C-310.38361941 295.74790781 -310.92318518 297.56028251 -311.4621582 299.37280273 C-311.77208206 300.40187241 -312.08200592 301.43094208 -312.40132141 302.49119568 C-313.18352223 305.16314443 -313.18352223 305.16314443 -311.9375 308.0625 C-278.75686655 286.3319139 -278.75686655 286.3319139 -245.9375 264.0625 C-250.40109616 260.29605781 -255.21852549 257.20766392 -260.125 254.0625 C-265.50576482 250.59647602 -270.87633251 247.12088642 -276.18359375 243.54296875 C-277.00512939 242.98931641 -277.82666504 242.43566406 -278.6730957 241.86523438 C-280.2431722 240.80386459 -281.81080182 239.73886445 -283.37573242 238.66992188 C-284.07931885 238.19490234 -284.78290527 237.71988281 -285.5078125 237.23046875 C-286.12414551 236.81047607 -286.74047852 236.3904834 -287.37548828 235.95776367 C-288.92663618 234.89674567 -288.92663618 234.89674567 -290.9375 235.0625 Z " fill="#000000" transform="translate(509.9375,86.9375)"/>
</svg>
